<?xml version="1.0" encoding="utf-8"?>
<svg width="100%" height="100%" viewBox="-210.0 -210.0 420.0 420.0" preserveAspectRatio="xMidYMid meet" version="1.1" baseProfile="full" xmlns="http://www.w3.org/2000/svg">
<g style="stroke:#fff; stroke-width: 6.180339887498949; stroke-linejoin: round;">
<path fill="#0035f3" fill-opacity="0.6" d="m-9.907600726170915e-15,-161.80339887498945 l3.78436673043415e-15,61.80339887498947 l58.778525229247315,19.09830056250526 l-3.78436673043415e-15,-61.80339887498947z"/>
<path fill="#0035f3" fill-opacity="0.6" d="m-9.907600726170915e-15,-161.80339887498945 l3.78436673043415e-15,61.80339887498947 l-58.778525229247315,19.09830056250526 l-3.78436673043415e-15,-61.80339887498947z"/>
<path fill="#0035f3" fill-opacity="0.6" d="m153.88417685876266,-50.0 l-58.77852522924729,19.09830056250525 l-36.32712640026806,-49.99999999999998 l58.77852522924729,-19.09830056250525z"/>
<path fill="#08f" fill-opacity="0.6" d="m36.32712640026805,-49.99999999999999 l58.778525229247315,19.098300562505244 l-36.32712640026806,-49.99999999999998 l-58.778525229247315,-19.098300562505244z"/>
<path fill="#08f" fill-opacity="0.6" d="m-36.32712640026805,-49.99999999999999 l-58.778525229247315,19.09830056250526 l36.32712640026804,-49.99999999999999 l58.778525229247315,-19.09830056250526z"/>
<path fill="#0035f3" fill-opacity="0.6" d="m-153.88417685876266,-49.999999999999986 l58.77852522924729,19.09830056250525 l36.32712640026804,-49.99999999999999 l-58.77852522924729,-19.09830056250525z"/>
<path fill="#0035f3" fill-opacity="0.6" d="m-6.123233995736765e-15,-99.99999999999999 l-36.32712640026804,49.99999999999999 l36.32712640026805,49.99999999999999 l36.32712640026804,-49.99999999999999z"/>
<path fill="#0035f3" fill-opacity="0.6" d="m95.10565162951536,-30.90169943749475 l-36.32712640026805,50.00000000000001 l-58.778525229247315,-19.09830056250526 l36.32712640026805,-50.00000000000001z"/>
<path fill="#0035f3" fill-opacity="0.6" d="m-95.10565162951536,-30.901699437494734 l36.32712640026805,50.0 l58.778525229247315,-19.098300562505266 l-36.32712640026805,-50.0z"/>
<path fill="#0035f3" fill-opacity="0.6" d="m153.88417685876266,-50.0 l-58.77852522924729,19.09830056250525 l-1.4210854715202004e-14,61.80339887498948 l58.77852522924729,-19.09830056250525z"/>
<path fill="#0035f3" fill-opacity="0.6" d="m-153.88417685876266,-49.999999999999986 l58.77852522924729,19.09830056250525 l1.4210854715202004e-14,61.80339887498948 l-58.77852522924729,-19.09830056250525z"/>
<path fill="#08f" fill-opacity="0.6" d="m58.778525229247315,19.09830056250526 l7.105427357601002e-15,61.8033988749895 l36.32712640026803,-50.000000000000014 l-7.105427357601002e-15,-61.8033988749895z"/>
<path fill="#08f" fill-opacity="0.6" d="m-58.778525229247315,19.098300562505266 l7.105427357601002e-15,61.80339887498949 l-36.32712640026804,-50.0 l-7.105427357601002e-15,-61.80339887498949z"/>
<path fill="#0035f3" fill-opacity="0.6" d="m58.77852522924732,80.90169943749476 l-58.778525229247315,-19.098300562505266 l-3.7843667304341506e-15,-61.80339887498949 l58.778525229247315,19.098300562505266z"/>
<path fill="#0035f3" fill-opacity="0.6" d="m-58.77852522924731,80.90169943749476 l58.778525229247315,-19.098300562505266 l-3.7843667304341506e-15,-61.80339887498949 l-58.778525229247315,19.098300562505266z"/>
<path fill="#08f" fill-opacity="0.6" d="m3.7843667304341506e-15,61.80339887498949 l-58.778525229247315,19.098300562505266 l58.778525229247315,19.098300562505244 l58.778525229247315,-19.098300562505266z"/>
<path fill="#0035f3" fill-opacity="0.6" d="m95.10565162951536,130.90169943749476 l-36.32712640026804,-50.0 l36.32712640026803,-50.000000000000014 l36.32712640026804,50.0z"/>
<path fill="#0035f3" fill-opacity="0.6" d="m-95.10565162951534,130.90169943749476 l36.32712640026803,-50.0 l-36.32712640026804,-50.0 l-36.32712640026803,50.0z"/>
<path fill="#0035f3" fill-opacity="0.6" d="m95.10565162951536,130.90169943749476 l-36.32712640026804,-50.0 l-58.778525229247315,19.098300562505244 l36.32712640026804,50.0z"/>
<path fill="#0035f3" fill-opacity="0.6" d="m-95.10565162951534,130.90169943749476 l36.32712640026803,-50.0 l58.778525229247315,19.098300562505244 l-36.32712640026803,50.0z"/>
</g>
</svg>
